<?xml version="1.0" encoding="UTF-8"?>
<svg xmlns="http://www.w3.org/2000/svg" xmlns:xlink="http://www.w3.org/1999/xlink" viewBox="0 0 120 120" width="120px" height="120px">
<g id="surface122478323">
<path style=" stroke:none;fill-rule:nonzero;fill:rgb(100%,100%,100%);fill-opacity:1;" d="M 36 100 L 16 100 L 16 40 L 36 40 Z M 26.003906 32 C 20.472656 32 16 27.515625 16 21.996094 C 16 16.476562 20.480469 12 26.003906 12 C 31.515625 12 36 16.484375 36 21.996094 C 36 27.515625 31.515625 32 26.003906 32 Z M 108 100 L 88.773438 100 L 88.773438 70.800781 C 88.773438 63.835938 88.640625 54.878906 78.777344 54.878906 C 68.765625 54.878906 67.222656 62.464844 67.222656 70.296875 L 67.222656 100 L 48 100 L 48 39.957031 L 66.457031 39.957031 L 66.457031 48.160156 L 66.714844 48.160156 C 69.285156 43.441406 75.558594 38.464844 84.921875 38.464844 C 104.398438 38.464844 108 50.898438 108 67.066406 Z M 108 100 "/>
</g>
</svg>
